<svg xmlns="http://www.w3.org/2000/svg" style="background: transparent; background-color: transparent; color-scheme: light dark;" xmlns:xlink="http://www.w3.org/1999/xlink" version="1.1" width="274px" height="201px" viewBox="-0.5 -0.5 274 201"><defs/><g><g data-cell-id="0"><g data-cell-id="1"><g data-cell-id="4"><g><path d="M 210 10 C 226.51 10 239.92 23.34 240 39.85 C 240.08 56.36 226.81 69.83 210.3 70 L 210.26 66.4 C 224.79 66.25 236.47 54.4 236.4 39.87 C 236.33 25.34 224.53 13.6 210 13.6 Z" fill="#ffffff" stroke="none" pointer-events="all" style="fill: light-dark(#ffffff, var(--ge-dark-color, #121212));"/></g></g><g data-cell-id="6"><g><path d="M 210 10 C 220.79 10 230.75 15.79 236.08 25.17 C 241.41 34.55 241.3 46.07 235.78 55.35 C 230.26 64.62 220.19 70.21 209.4 69.99" fill="none" stroke="#000000" stroke-miterlimit="10" pointer-events="all" style="stroke: light-dark(rgb(0, 0, 0), rgb(255, 255, 255));"/></g></g><g data-cell-id="2"><g><rect x="50" y="0" width="20" height="80" fill="none" stroke="none" pointer-events="all"/><path d="M 50 0 L 50 0 M 50 7.05 L 57.05 0 M 50 14.1 L 64.1 0 M 50 21.15 L 70 1.15 M 50 28.2 L 70 8.2 M 50 35.25 L 70 15.25 M 50 42.3 L 70 22.3 M 50 49.35 L 70 29.35 M 50 56.4 L 70 36.4 M 50 63.45 L 70 43.45 M 50 70.5 L 70 50.5 M 50 77.55 L 70 57.55 M 54.6 80 L 70 64.6 M 61.65 80 L 70 71.65 M 68.7 80 L 70 78.7" fill="none" stroke="#dddddd" stroke-width="0.2" stroke-linejoin="round" stroke-linecap="round" stroke-miterlimit="10" pointer-events="all" style="stroke: light-dark(rgb(221, 221, 221), rgb(47, 47, 47));"/><path d="M 50 0 L 70 0 L 70 80 L 50 80 L 50 0" fill="none" stroke="#000000" stroke-linejoin="round" stroke-linecap="round" stroke-miterlimit="10" pointer-events="all" style="stroke: light-dark(rgb(0, 0, 0), rgb(255, 255, 255));"/></g></g><g data-cell-id="3"><g><rect x="50" y="120" width="20" height="80" fill="none" stroke="none" pointer-events="all"/><path d="M 50 120 L 50 120 M 50 127.05 L 57.05 120 M 50 134.1 L 64.1 120 M 50 141.15 L 70 121.15 M 50 148.2 L 70 128.2 M 50 155.25 L 70 135.25 M 50 162.3 L 70 142.3 M 50 169.35 L 70 149.35 M 50 176.4 L 70 156.4 M 50 183.45 L 70 163.45 M 50 190.5 L 70 170.5 M 50 197.55 L 70 177.55 M 54.6 200 L 70 184.6 M 61.65 200 L 70 191.65 M 68.7 200 L 70 198.7" fill="none" stroke="#dddddd" stroke-width="0.2" stroke-linejoin="round" stroke-linecap="round" stroke-miterlimit="10" pointer-events="all" style="stroke: light-dark(rgb(221, 221, 221), rgb(47, 47, 47));"/><path d="M 50 120 L 70 120 L 70 200 L 50 200 L 50 120" fill="none" stroke="#000000" stroke-linejoin="round" stroke-linecap="round" stroke-miterlimit="10" pointer-events="all" style="stroke: light-dark(rgb(0, 0, 0), rgb(255, 255, 255));"/></g></g><g data-cell-id="5"><g><path d="M 210 14 C 219.32 14 227.93 18.99 232.56 27.08 C 237.19 35.16 237.14 45.11 232.43 53.15 C 227.72 61.19 219.06 66.09 209.74 66" fill="none" stroke="#000000" stroke-miterlimit="10" pointer-events="all" style="stroke: light-dark(rgb(0, 0, 0), rgb(255, 255, 255));"/></g></g><g data-cell-id="7"><g><path d="M 40 10 L 210 10 L 210 14 L 210 14 L 40 14 L 40 10 Z" fill="#ffffff" stroke="none" pointer-events="all" style="fill: light-dark(#ffffff, var(--ge-dark-color, #121212));"/><path d="M 40 10 L 40 14 L 40 14 L 210 14 L 210 10 L 40 10" fill="transparent" stroke="none" pointer-events="all" style="fill: transparent;"/><path d="M 210 14 L 40 14 L 40 10 L 210 10" fill="none" stroke="#000000" stroke-miterlimit="10" pointer-events="all" style="stroke: light-dark(rgb(0, 0, 0), rgb(255, 255, 255));"/></g></g><g data-cell-id="8"><g><path d="M 40 66 L 210 66 L 210 70 L 210 70 L 40 70 L 40 66 Z" fill="#ffffff" stroke="none" pointer-events="all" style="fill: light-dark(#ffffff, var(--ge-dark-color, #121212));"/><path d="M 40 66 L 40 70 L 40 70 L 210 70 L 210 66 L 40 66" fill="transparent" stroke="none" pointer-events="all" style="fill: transparent;"/><path d="M 210 70 L 40 70 L 40 66 L 210 66" fill="none" stroke="#000000" stroke-miterlimit="10" pointer-events="all" style="stroke: light-dark(rgb(0, 0, 0), rgb(255, 255, 255));"/></g></g><g data-cell-id="9"><g><path d="M 15 12 L 26.88 12" fill="none" stroke="#000000" stroke-miterlimit="10" pointer-events="stroke" style="stroke: light-dark(rgb(0, 0, 0), rgb(200, 10, 15));"/><path d="M 33.88 12 L 26.88 14.33 L 26.88 9.67 Z" fill="#000000" stroke="#000000" stroke-miterlimit="10" pointer-events="all" style="fill: light-dark(rgb(0, 0, 0), rgb(200, 10, 15)); stroke: light-dark(rgb(0, 0, 0), rgb(200, 10, 15));"/></g></g><g data-cell-id="11"><g><path d="M 24.12 67.92 L 36 67.92" fill="none" stroke="#000000" stroke-miterlimit="10" pointer-events="stroke" style="stroke: light-dark(rgb(0, 0, 0), rgb(200, 10, 15));"/><path d="M 17.12 67.92 L 24.12 65.59 L 24.12 70.25 Z" fill="#000000" stroke="#000000" stroke-miterlimit="10" pointer-events="all" style="fill: light-dark(rgb(0, 0, 0), rgb(200, 10, 15)); stroke: light-dark(rgb(0, 0, 0), rgb(200, 10, 15));"/></g></g><g data-cell-id="12"><g><path d="M 221.12 39.95 L 255.29 39.95" fill="none" stroke="#000000" stroke-miterlimit="10" pointer-events="stroke" style="stroke: light-dark(rgb(0, 0, 0), rgb(215, 155, 0));"/><path d="M 214.12 39.95 L 221.12 37.62 L 221.12 42.28 Z" fill="#000000" stroke="#000000" stroke-miterlimit="10" pointer-events="all" style="fill: light-dark(rgb(0, 0, 0), rgb(215, 155, 0)); stroke: light-dark(rgb(0, 0, 0), rgb(215, 155, 0));"/><path d="M 262.29 39.95 L 255.29 42.28 L 255.29 37.62 Z" fill="#000000" stroke="#000000" stroke-miterlimit="10" pointer-events="all" style="fill: light-dark(rgb(0, 0, 0), rgb(215, 155, 0)); stroke: light-dark(rgb(0, 0, 0), rgb(215, 155, 0));"/></g></g><g data-cell-id="13"><g><rect x="190" y="120" width="20" height="80" fill="none" stroke="none" pointer-events="all"/><path d="M 190 120 L 190 120 M 190 127.05 L 197.05 120 M 190 134.1 L 204.1 120 M 190 141.15 L 210 121.15 M 190 148.2 L 210 128.2 M 190 155.25 L 210 135.25 M 190 162.3 L 210 142.3 M 190 169.35 L 210 149.35 M 190 176.4 L 210 156.4 M 190 183.45 L 210 163.45 M 190 190.5 L 210 170.5 M 190 197.55 L 210 177.55 M 194.6 200 L 210 184.6 M 201.65 200 L 210 191.65 M 208.7 200 L 210 198.7" fill="none" stroke="#dddddd" stroke-width="0.2" stroke-linejoin="round" stroke-linecap="round" stroke-miterlimit="10" pointer-events="all" style="stroke: light-dark(rgb(221, 221, 221), rgb(47, 47, 47));"/><path d="M 190 120 L 210 120 L 210 200 L 190 200 L 190 120" fill="none" stroke="#000000" stroke-linejoin="round" stroke-linecap="round" stroke-miterlimit="10" pointer-events="all" style="stroke: light-dark(rgb(0, 0, 0), rgb(255, 255, 255));"/></g></g><g data-cell-id="17"><g><path d="M 40 130 L 40 130 L 220 130 L 220 134 L 220 134 L 40 134 L 40 130 Z" fill="#ffffff" stroke="none" pointer-events="all" style="fill: light-dark(#ffffff, var(--ge-dark-color, #121212));"/><path d="M 40 130 L 40 134 L 220 134 L 220 130 L 40 130" fill="transparent" stroke="none" pointer-events="all" style="fill: transparent;"/><path d="M 40 130 L 220 130" fill="none" stroke="#000000" stroke-miterlimit="10" pointer-events="all" style="stroke: light-dark(rgb(0, 0, 0), rgb(255, 255, 255));"/><path d="M 220 134 L 40 134" fill="none" stroke="#000000" stroke-miterlimit="10" pointer-events="all" style="stroke: light-dark(rgb(0, 0, 0), rgb(255, 255, 255));"/></g></g><g data-cell-id="18"><g><path d="M 40 186 L 40 186 L 220 186 L 220 190 L 220 190 L 40 190 L 40 186 Z" fill="#ffffff" stroke="none" pointer-events="all" style="fill: light-dark(#ffffff, var(--ge-dark-color, #121212));"/><path d="M 40 186 L 40 190 L 220 190 L 220 186 L 40 186" fill="transparent" stroke="none" pointer-events="all" style="fill: transparent;"/><path d="M 40 186 L 220 186" fill="none" stroke="#000000" stroke-miterlimit="10" pointer-events="all" style="stroke: light-dark(rgb(0, 0, 0), rgb(255, 255, 255));"/><path d="M 220 190 L 40 190" fill="none" stroke="#000000" stroke-miterlimit="10" pointer-events="all" style="stroke: light-dark(rgb(0, 0, 0), rgb(255, 255, 255));"/></g></g><g data-cell-id="19"><g><path d="M 0 158 L 20 158 L 20 162 L 20 162 L 0 162 L 0 158 Z" fill="#ffffff" stroke="none" pointer-events="all" style="fill: light-dark(#ffffff, var(--ge-dark-color, #121212));"/><path d="M 0 158 L 0 162 L 0 162 L 20 162 L 20 158 L 0 158" fill="transparent" stroke="none" pointer-events="all" style="fill: transparent;"/><path d="M 20 162 L 0 162 L 0 158 L 20 158" fill="none" stroke="#000000" stroke-miterlimit="10" pointer-events="all" style="stroke: light-dark(rgb(0, 0, 0), rgb(255, 255, 255));"/></g></g></g></g></g></svg>